<?xml version="1.0" encoding="UTF-8"?>
<svg width="28px" height="58px" viewBox="0 0 28 58" version="1.1" xmlns="http://www.w3.org/2000/svg" xmlns:xlink="http://www.w3.org/1999/xlink">
    <!-- Generator: Sketch 48.2 (47327) - http://www.bohemiancoding.com/sketch -->
    <title>Icon</title>
    <desc>Created with Sketch.</desc>
    <defs></defs>
    <g id="Welcome-screen" stroke="none" stroke-width="1" fill="none" fill-rule="evenodd" transform="translate(-706.000000, -675.000000)" opacity="0.4">
        <g id="Icon" transform="translate(700.000000, 674.000000)">
            <g id="ic_mouse_black_24px">
                <polygon id="Shape" points="0 0 40 0 40 40 0 40"></polygon>
                <path d="M21.6666667,1.78333333 L21.6666667,15 L33.3333333,15 C33.3333333,8.2 28.25,2.6 21.6666667,1.78333333 Z M6.66666667,25 C6.66666667,32.3666667 12.6333333,38.3333333 20,38.3333333 C27.3666667,38.3333333 33.3333333,32.3666667 33.3333333,25 L33.3333333,18.3333333 L6.66666667,18.3333333 L6.66666667,25 Z M18.3333333,1.78333333 C11.75,2.6 6.66666667,8.2 6.66666667,15 L18.3333333,15 L18.3333333,1.78333333 Z" id="Shape" fill="#000000" fill-rule="nonzero"></path>
            </g>
            <g id="ic_keyboard_arrow_down_black_24px" transform="translate(0.000000, 33.000000)">
                <polygon id="Shape" fill="#000000" fill-rule="nonzero" points="12.35 14.144 20 21.472 27.65 14.144 30 16.4 20 26 10 16.4"></polygon>
                <polygon id="Shape" points="0 0.4 40 0.4 40 38.8 0 38.8"></polygon>
            </g>
        </g>
    </g>
</svg>